# xmcd
#
# Track frame offsets:
#	150
#	14861
#	31805
#	45605
#	62809
#	78262
#	90587
#	107119
#	121284
#	139140
#	157205
#	174795
#	194518
#	213072
#	224606
#	248877
#
# Disc length: 3625 seconds
#
# Revision: 1
# Processed by: cddbd v1.5.2PL0 Copyright (c) Steve Scherf et al.
# Submitted via: audiograbber 1.83.01
#
DISCID=e20e2710
DTITLE=Various Artist - ASK79-1
DYEAR=1900
DGENRE=KARAOKE
TTITLE0=BJ THOMAS - I'M SO LONESOME I COULD CRY
TTITLE1=CAL SMITH - COUNTRY BUMPKIN
TTITLE2=CHARLIE RICH - THE MOST BEAUTIFUL GIRL
TTITLE3=CONWAY TWITTY - DON'T TAKE IT AWAY
TTITLE4=BLAKE SHELTON - GOODBYE TIME
TTITLE5=CONWAY TWITTY - HELLO DARLIN'
TTITLE6=CONWAY TWITTY - I'D LOVE TO LAY YOU DOWN
TTITLE7=CONWAY TWITTY - SLOW HAND
TTITLE8=DEANNA CARTER - STRAWBERRY WINE
TTITLE9=DON WILLIAMS - I BELIEVE IN YOU
TTITLE10=TIM MCGRAW-FAITH HILL - IT'S YOUR LOVE
TTITLE11=FAITH HILL-TIM MCGRAW - LET'S MAKE LOVE
TTITLE12=CRYSTAL GAYLE-EDDIE RABBITT - YOU AND I
TTITLE13=FREDDY FENDER - BEFORE THE NEXT TEARDROP FALLS
TTITLE14=FREDDY FENDER - WASTED DAYS AND WASTED NIGHTS
TTITLE15=DATA - Data Track
EXTD=
EXTT0=
EXTT1=
EXTT2=
EXTT3=
EXTT4=
EXTT5=
EXTT6=
EXTT7=
EXTT8=
EXTT9=
EXTT10=
EXTT11=
EXTT12=
EXTT13=
EXTT14=
EXTT15=
PLAYORDER=
